<?xml version="1.0" encoding="UTF-8" standalone="no"?>
<!-- Created with Inkscape (http://www.inkscape.org/) -->

<svg
   width="210mm"
   height="297mm"
   viewBox="0 0 210 297"
   version="1.1"
   id="svg5"
   sodipodi:docname="copertina_anticonformista.svg"
   inkscape:version="1.2.2 (b0a84865, 2022-12-01)"
   xmlns:inkscape="http://www.inkscape.org/namespaces/inkscape"
   xmlns:sodipodi="http://sodipodi.sourceforge.net/DTD/sodipodi-0.dtd"
   xmlns="http://www.w3.org/2000/svg"
   xmlns:svg="http://www.w3.org/2000/svg">
  <sodipodi:namedview
     id="namedview7"
     pagecolor="#ffffff"
     bordercolor="#000000"
     borderopacity="0.25"
     inkscape:showpageshadow="2"
     inkscape:pageopacity="0.0"
     inkscape:pagecheckerboard="0"
     inkscape:deskcolor="#d1d1d1"
     inkscape:document-units="mm"
     showgrid="false"
     inkscape:zoom="0.56621733"
     inkscape:cx="676.41872"
     inkscape:cy="614.605"
     inkscape:window-width="1680"
     inkscape:window-height="1050"
     inkscape:window-x="0"
     inkscape:window-y="0"
     inkscape:window-maximized="0"
     inkscape:current-layer="layer1" />
  <defs
     id="defs2">
    <rect
       x="8.4258496"
       y="856.27696"
       width="845.69723"
       height="729.64777"
       id="rect1707" />
    <rect
       x="25.277549"
       y="17.90493"
       width="734.10214"
       height="148.5056"
       id="rect1697" />
    <rect
       x="74.759517"
       y="307.99364"
       width="140.95284"
       height="65.609264"
       id="rect731" />
  </defs>
  <g
     inkscape:label="Livello 1"
     inkscape:groupmode="layer"
     id="layer1">
    <rect
       style="fill:#ffffff;stroke-width:0.264583"
       id="rect2387"
       width="211.21159"
       height="296.72427"
       x="1.4018469"
       y="0.4672823"
       inkscape:label="rect2387" />
    <text
       xml:space="preserve"
       transform="matrix(1.3026215,0,0,1.5566341,-57.916192,-297.83165)"
       id="text729"
       style="white-space:pre;shape-inside:url(#rect731);display:inline;fill:#2b0000"><tspan
         x="74.759766"
         y="318.9421"
         id="tspan2533">Il Portale di Nicola</tspan></text>
    <path
       style="fill:#ff0000;stroke-width:1.32493"
       id="path840"
       d="m 31.119657,201.05474 c 0.242906,-0.42125 0.522498,-0.80643 0.728741,-1.26327 0.777575,-1.72229 1.40938,-3.56742 2.217524,-5.26271 1.966633,-4.12557 7.868713,-15.07565 9.656769,-18.39632 2.07701,-3.85724 4.172291,-7.69572 6.258439,-11.5436 2.123404,-3.95601 4.246813,-7.91208 6.370217,-11.86811 7.514726,-14.2475 14.275661,-29.22099 20.371404,-44.70023 2.743126,-6.96576 3.480265,-9.165435 5.919929,-15.962457 2.110912,-6.299281 4.360769,-12.575353 5.759524,-19.265576 0.0459,-0.27893 0.09744,-0.556271 0.137585,-0.836865 0.02856,-0.199093 0.04735,-0.400655 0.06832,-0.601578 0.0034,-0.03766 0.01662,-0.149142 0.0069,-0.113782 -0.03452,0.120021 -0.09087,0.242865 -0.08073,0.371358 0.0069,0.08966 0.06223,0.191031 0.126674,0.206563 0.165718,0.04 0.335399,-0.03647 0.503124,-0.05471 3.011107,-0.662811 6.073585,-0.732518 9.114905,-0.898939 4.144098,-0.09495 8.297258,-0.288402 12.440858,-0.04177 0.7614,0.0453 1.52136,0.128434 2.28204,0.192622 3.84445,0.48314 7.63604,1.676528 11.28724,3.399223 0.9475,0.447075 1.87899,0.956361 2.81849,1.434528 4.4261,2.525336 8.68156,5.584858 12.84558,8.840859 1.08199,0.84604 4.31105,3.425083 3.22871,2.579869 -3.00158,-2.343938 -5.99101,-4.717405 -8.98651,-7.076101 5.54812,4.673561 10.8154,10.029969 15.38385,16.43731 0.90607,1.270777 1.7517,2.621051 2.62756,3.931576 2.68439,4.29768 5.11511,8.92683 6.93374,14.03146 0.78852,2.2133 0.88676,2.78571 1.45435,5.00266 0.49735,2.4987 1.08668,5.22517 0.58996,7.82586 -0.0685,0.35823 -0.18622,0.69491 -0.27935,1.04235 -0.14615,0.31022 -0.27091,0.64178 -0.43845,0.93065 -1.28639,2.21806 -3.68885,3.81282 -5.47711,5.06265 -2.71477,1.79071 -5.55756,3.19196 -8.45691,4.29412 -1.90145,0.72281 -2.64405,0.90173 -4.56186,1.46683 -3.70716,1.02293 -7.48606,1.24448 -11.2551,1.28662 -2.38641,-0.004 -4.77253,-0.0625 -7.15863,-0.10964 -2.02429,-0.0913 -4.03862,-0.37465 -6.04632,-0.73332 -2.21886,-0.55963 -4.4046,-1.33555 -6.603,-2.02724 -0.47851,-0.15856 -0.957,-0.31735 -1.43557,-0.47567 -1.39934,-0.46289 -1.89025,-0.59481 -3.29094,-1.17999 -1.79325,-0.74922 -3.53526,-1.66426 -5.27306,-2.62495 -1.440478,-0.89475 -2.884138,-1.80858 -4.259578,-2.8859 -0.34401,-0.26945 -1.35366,-1.13011 -1.01022,-0.85929 12.877128,10.15392 17.349018,14.32652 12.557238,9.88429 -0.72639,-0.63745 -1.19387,-1.53821 -1.63874,-2.52129 -4.89053,-10.78825 -10.709818,-12.09269 -17.425657,-12.10658 -1.16132,0.0317 -2.329766,-0.0871 -3.488686,0.0664 -0.598112,0.0794 -1.304835,0.27093 -1.896114,0.41708 -1.077362,0.39906 -2.176794,0.77488 -3.17509,1.48282 -0.536267,0.3803 -0.711978,0.57762 -1.2037,1.04322 -1.027608,1.01801 -1.986117,2.15472 -2.974106,3.24196 -0.730916,0.87485 -1.443718,1.77761 -2.141924,2.7018 -0.501696,0.66816 -0.829353,1.51825 -1.172419,2.34438 -0.229396,0.57599 -0.527866,1.08931 -0.801993,1.62496 -0.234596,0.40025 -0.400697,0.8566 -0.562152,1.31809 -0.205995,0.57746 -0.483951,1.09091 -0.738434,1.6265 -0.439236,0.82934 -0.821775,1.71038 -1.227125,2.57076 -0.471544,1.07488 -0.791231,2.25184 -1.109635,3.42327 -0.357904,1.50608 -0.603998,3.06099 -0.798925,4.62161 -0.188946,1.56055 -0.244867,3.14412 -0.299339,4.72226 -0.06031,1.2508 0.0089,2.49854 0.124117,3.73852 0.135967,0.86407 0.333139,1.80977 0.698075,2.55401 0.07071,0.14414 0.167209,0.26122 0.250835,0.39125 4.466507,5.59788 0.460675,0.62916 14.966366,12.06078 0.410585,0.32358 1.237623,0.37183 1.706174,0.42243 0.85407,0.14649 1.694961,0.0412 2.52076,-0.27416 0.854772,-0.2524 1.667724,-0.70642 2.512246,-1.01806 0.69204,-0.26652 1.310564,-0.70018 1.890011,-1.2798 0.350486,-0.33123 0.671542,-0.72506 0.96607,-1.14708 0.271847,-0.39242 0.616047,-0.67511 0.937227,-0.98799 0.45539,-0.44596 0.93162,-0.85055 1.37822,-1.32004 0.69982,-0.59417 1.27389,-1.35306 1.81414,-2.19891 0.77215,-1.11112 1.33588,-2.44935 1.9678,-3.7078 1.037128,-1.89914 1.849038,-3.98213 2.640908,-6.08596 1.05026,-2.76634 2.01784,-5.58629 2.90585,-8.45824 1.17349,-3.58002 2.11142,-7.29225 2.96403,-11.03729 1.30552,-6.14951 2.45992,-12.35697 3.73535,-18.51821 0.90998,-4.42996 1.95669,-8.79999 3.07529,-13.13658 0.54376,-1.96585 0.97457,-3.9853 1.49618,-5.96162 0.34506,-1.289295 0.60024,-2.619375 0.88694,-3.934816 0.29205,-1.466862 0.61283,-2.922974 0.95821,-4.367561 0.18242,-0.832933 0.44963,-1.615522 0.69727,-2.411469 0.16099,-0.654492 0.24482,-1.343325 0.34746,-2.020582 0.0864,-0.46784 0.12825,-0.947027 0.1846,-1.422467 -0.0775,0.276687 -0.37457,0.805882 -0.34367,1.076716 0.005,0.0371 0.0413,0.04883 0.0619,0.07337 0.34277,0.06691 0.69208,0.03292 1.03768,0.04824 0.26818,0.0096 0.53668,0.01532 0.80464,0.03411 -0.0337,0.06835 0.13491,-0.04058 0.12084,0.01077 -0.0413,0.15303 -0.13698,0.273575 -0.16852,0.430842 -0.009,0.04584 0.0883,0.142437 0.0581,0.118738 -14.60782,-11.536772 -19.73377,-13.380113 -14.21403,-11.371438 1.09982,0.869847 2.0725,2.007715 3.03518,3.142267 1.99005,2.458487 3.74265,5.249485 5.48822,8.030824 1.42605,2.31885 2.87347,4.618046 4.20183,7.047039 0.88897,1.625493 1.13558,2.16965 1.95672,3.836832 1.40238,2.969305 2.62052,6.091315 3.98005,9.096775 1.28619,2.65149 2.69149,5.18855 4.04677,7.77312 1.54246,2.93526 3.32422,5.60013 5.1495,8.19946 1.71862,2.40576 3.56581,4.61866 5.47508,6.7283 5.67007,6.03286 11.8717,11.30873 18.47296,15.13865 2.03322,1.06735 4.146,1.71093 6.29331,2.1377 2.24548,0.35123 3.87755,-0.46302 5.87046,-1.74659 1.86266,-1.19625 3.61388,-2.68386 5.2493,-4.39396 1.41554,-1.58442 2.45754,-3.66239 3.41104,-5.77928 1.16475,-2.58437 2.1976,-5.27236 3.16335,-8.00662 1.36162,-3.93065 2.59541,-7.94739 3.77848,-11.98613 1.00458,-3.52014 2.03839,-7.04449 2.68978,-10.72947 0.43373,-2.45369 0.767,-5.26064 1.08794,-7.7353 0.71827,-6.150189 1.37774,-12.315519 2.29341,-18.417435 0.22125,-1.126174 0.33319,-2.299459 0.59163,-3.412514 0.20131,-0.991447 -0.40901,0.840545 -0.47541,1.051292 -0.0196,0.07505 -0.0273,0.153784 -0.038,0.231622 0,0 -13.78666,-13.807623 -13.78666,-13.807623 v 0 c -0.0658,0.08113 -0.13231,0.160968 -0.19312,0.249278 -0.29091,0.457782 -0.49612,0.94757 -0.69966,1.495644 -0.009,0.02295 0.0846,0.141671 0.0612,0.181443 0.31225,1.068803 0.18243,2.707566 0.31856,3.807187 0.14633,6.363487 -0.19636,12.732909 -1.10725,18.981523 -0.22232,1.27505 -0.41531,2.560502 -0.66695,3.825127 -0.93753,4.71191 -2.35317,9.215726 -3.75198,13.691526 -1.24944,3.92361 -2.56377,7.80684 -4.05418,11.56936 -1.04373,2.60564 -2.12695,5.17567 -3.33827,7.64167 -0.88716,1.88059 -1.85047,3.69037 -3.1376,5.0947 -1.49011,1.63014 -3.11596,3.02538 -4.89371,3.98026 -0.31651,0.15021 -0.62868,0.31941 -0.9496,0.45067 -1.4413,0.58957 -2.93055,0.67072 -4.40628,0.2844 -2.09918,-0.55568 -4.16981,-1.34953 -6.0793,-2.7071 -5.30099,-3.93722 -1.3773,-1.03877 12.412,9.99363 0.24571,0.19656 -0.49071,-0.39507 -0.7321,-0.60156 -0.77193,-0.66036 -0.7276,-0.65701 -1.49252,-1.3851 -0.2794,-0.26593 -0.56103,-0.52726 -0.84155,-0.79091 -0.93466,-0.98054 -1.89116,-1.93225 -2.79812,-2.96178 -0.61617,-0.69941 -1.37399,-1.6521 -1.96512,-2.38569 -0.33795,-0.41942 -0.67533,-0.83965 -1.01301,-1.25948 -0.8418,-1.11656 -1.17951,-1.53076 -1.97074,-2.7148 -1.08936,-1.63017 -2.08808,-3.37075 -3.10434,-5.08644 -1.3847,-2.49652 -2.6623,-5.10125 -4.03309,-7.61246 -1.51671,-3.0843 -2.95801,-6.23656 -4.39624,-9.39132 -1.85111,-3.78672 -3.76551,-7.51646 -5.91553,-10.995758 -1.65483,-2.756921 -3.33872,-5.479442 -5.10213,-8.106028 -0.64615,-0.894049 -1.31294,-1.75851 -1.96375,-2.643546 -0.0737,-0.100304 -0.12769,-0.226977 -0.20455,-0.322697 -0.0494,-0.06152 -0.11338,-0.09588 -0.17006,-0.14385 -3.45723,-6.443621 -0.1338,-0.305701 -14.7386,-11.834885 -0.048,-0.03824 -0.11351,-0.07984 -0.16287,-0.0453 -0.36012,0.252749 -0.15484,0.362296 -0.37934,0.36918 -0.24496,0.01824 -0.49072,0.01824 -0.73593,0.0247 -0.38514,0.01113 -0.77454,-0.03588 -1.15593,0.05471 -0.53614,0.292165 -0.79363,1.08717 -1.02141,1.767878 0.0311,0.403193 0.0328,0.810108 0.009,1.214257 -0.0475,0.55803 -0.17402,1.083335 -0.22602,1.636362 -0.0678,0.339874 -0.16751,0.668688 -0.22966,1.010153 -0.098,0.538209 -0.13447,1.101122 -0.2822,1.623183 -0.33902,1.447794 -0.60607,2.924949 -0.93146,4.378848 -0.34325,1.316476 -0.65977,2.641846 -0.89944,4.002407 -0.35726,2.097761 -0.7506,4.183828 -1.10618,6.28232 -0.739658,4.597086 -1.404508,9.217426 -2.253458,13.780246 -1.17102,6.10231 -2.36702,12.21137 -4.03763,18.09747 -1.067203,3.55915 -2.265515,7.03424 -3.418153,10.5416 -0.87374,2.79129 -1.72099,5.61052 -2.831517,8.24314 -0.369155,0.83908 -0.665899,1.54708 -1.071679,2.34663 -0.567898,1.11908 -1.215971,2.15995 -1.782832,3.28055 -0.615221,1.14925 -1.224172,2.31198 -1.967163,3.31385 -0.528065,0.67653 -1.124779,1.21462 -1.729194,1.75359 -0.475666,0.41771 -0.964851,0.8046 -1.416946,1.27074 -0.400952,0.37713 -0.780409,0.79843 -1.132213,1.25934 -0.23809,0.28887 -0.469745,0.58539 -0.742189,0.81419 -0.478002,0.36065 -0.981644,0.62276 -1.50899,0.82502 -0.7858,0.3483 -1.582867,0.64264 -2.407761,0.74454 -0.726764,0.006 -1.446436,-0.0823 -2.150159,-0.35594 -0.390125,-0.18651 -0.74291,-0.39654 -1.101256,-0.68117 -0.115593,-0.0918 -0.458884,-0.37595 -0.343454,-0.28358 14.152401,11.3249 18.911914,14.28816 13.67686,11.0092 -0.101485,-0.0688 -0.203013,-0.13709 -0.304497,-0.20592 -0.105321,-0.047 -0.216907,-0.067 -0.315877,-0.13355 -0.369198,-0.24828 -0.521574,-0.8142 -0.762312,-1.23409 -0.336889,-1.00529 -0.432922,-2.13083 -0.436239,-3.23001 -0.01322,-1.49267 -0.0089,-2.98851 0.126803,-4.47246 0.156638,-1.40382 0.38808,-2.79048 0.729743,-4.13199 0.29316,-1.01376 0.559329,-2.04382 0.972143,-2.9815 0.391618,-0.83185 0.806188,-1.64174 1.252951,-2.41929 0.336208,-0.58245 0.638654,-1.19279 0.916887,-1.83049 0.169255,-0.39712 0.323506,-0.80583 0.510599,-1.18844 0.237536,-0.61639 0.563131,-1.16313 0.787199,-1.79194 0.245293,-0.65393 0.516689,-1.2918 0.879724,-1.83619 0.611512,-0.90427 1.213661,-1.82666 1.898305,-2.6285 0.91782,-1.07136 1.861615,-2.0993 2.852334,-3.04048 1.170423,-0.96919 2.454913,-1.61718 3.809713,-1.89096 1.7534,-0.28594 3.518028,-0.20621 5.274588,0.0171 0.50495,0.0956 0.9169,0.14773 1.4058,0.33312 0.18447,0.0699 0.36787,0.15115 0.54176,0.26116 0.14547,0.0922 0.54984,0.45255 0.41122,0.34212 -14.154589,-11.2723 -19.409621,-12.05343 -13.728814,-11.14653 0.08785,0.0612 0.182297,0.10677 0.263494,0.18339 0.66265,0.62555 0.963755,2.10396 1.648114,2.72508 4.835908,5.98577 0.638778,0.89657 15.309056,12.59346 0.29866,0.23828 0.61667,0.42713 0.92821,0.63134 1.32361,0.86827 2.67179,1.66611 4.04267,2.38147 3.41527,1.70529 6.88254,3.17276 10.40984,4.37414 2.28682,0.81737 4.58135,1.66104 6.93432,2.02652 2.04118,0.28828 4.08646,0.56716 6.14152,0.52067 2.31335,-0.0176 4.62844,-0.0294 6.93822,-0.23121 3.65736,-0.37006 7.30238,-1.00694 10.88041,-2.14188 4.57688,-1.55562 9.10111,-3.41506 13.46958,-5.87829 2.28809,-1.35553 4.95483,-2.79577 6.55029,-5.58848 0.23876,-0.41795 0.42008,-0.89279 0.63015,-1.33919 0.35406,-1.2807 0.50326,-1.56541 0.60071,-2.95305 0.18895,-2.69045 -0.41953,-5.31336 -1.04685,-7.81711 -0.76622,-2.50085 -0.9031,-3.10756 -1.88821,-5.5975 -2.13463,-5.39541 -4.83606,-10.30929 -7.70792,-14.99047 -0.88599,-1.35944 -1.74257,-2.75648 -2.65795,-4.0783 -4.45977,-6.440011 -9.53191,-12.019902 -15.0128,-16.714217 -5.0914,-4.092537 -10.17706,-8.198744 -15.27421,-12.277631 -5.35567,-4.285773 -10.84764,-8.287446 -16.57451,-11.5494 -1.02198,-0.524499 -2.03565,-1.08107 -3.06597,-1.573587 -3.83089,-1.831256 -7.8067,-3.140387 -11.87268,-3.31437 -4.921818,-0.116726 -9.845069,0.06942 -14.767298,-0.06101 -3.415052,-0.06301 -6.839626,-0.153614 -10.248403,0.195326 -0.950448,0.286519 -1.492673,0.374181 -1.935157,1.745823 -0.2155,0.668048 0.178547,1.310797 0.195297,1.976426 0.03495,0.435485 0.08708,0.868976 0.104768,1.306426 0.115634,2.853774 -0.108603,5.727303 -0.438111,8.540018 -0.594221,5.072462 -0.869546,6.098619 -1.8182,11.42934 -1.643042,7.371604 -2.032306,9.648465 -4.241379,17.115096 -4.814623,16.27343 -11.234942,31.53382 -18.678749,45.77615 -2.165852,3.90366 -4.236532,7.9115 -6.497561,11.7109 -4.405475,7.40302 -8.648652,13.72414 -13.867902,20.0066 -3.393694,4.08505 -7.078977,8.09401 -11.408398,10.10718 0,0 14.061935,12.67212 14.061935,12.67212 z" />
    <ellipse
       id="path842"
       style="fill:#ff0000;stroke:#000000;stroke-width:1.32493"
       cx="13.480824"
       cy="138.56789"
       rx="0.029244212"
       ry="0.040366665" />
    <text
       xml:space="preserve"
       style="font-size:1.76389px;white-space:pre;inline-size:19.8163;display:inline;fill:#ff0000;stroke-width:0.264583"
       x="22.870766"
       y="110.23297"
       id="text1263"
       transform="matrix(4.2622719,0,0,5.8833417,-57.654266,-437.23707)"><tspan
         x="22.870766"
         y="110.23297"
         id="tspan2537"><tspan
           style="fill:#008000"
           id="tspan2535">2nd Anniversary</tspan></tspan></text>
    <text
       xml:space="preserve"
       transform="scale(0.26458333)"
       id="text1695"
       style="font-size:192px;white-space:pre;shape-inside:url(#rect1697);display:inline;fill:#008000" />
    <text
       xml:space="preserve"
       style="font-size:37.4417px;fill:#008000;stroke-width:0.351016"
       x="4.0018439"
       y="30.42869"
       id="text1703"
       transform="scale(0.58996221,1.6950238)"><tspan
         sodipodi:role="line"
         id="tspan1701"
         style="font-size:37.4417px;stroke-width:0.351016"
         x="4.0018439"
         y="30.42869">Il Portale di Nicola</tspan></text>
    <text
       xml:space="preserve"
       transform="matrix(0.26608068,0,0,0.15785826,-10.048075,92.673241)"
       id="text1705"
       style="font-size:89.5637px;white-space:pre;shape-inside:url(#rect1707);display:inline;fill:#008000"
       x="383.33527"
       y="0"><tspan
         x="117.77961"
         y="937.98902"
         id="tspan2541"><tspan
           style="text-align:center;text-anchor:middle;fill:#0000ff"
           id="tspan2539">Sfondi, guide, </tspan></tspan><tspan
         x="126.00127"
         y="1049.9436"
         id="tspan2545"><tspan
           style="text-align:center;text-anchor:middle;fill:#0000ff"
           id="tspan2543">trucchi, C++, </tspan></tspan><tspan
         x="62.830003"
         y="1161.8982"
         id="tspan2549"><tspan
           style="text-align:center;text-anchor:middle;fill:#0000ff"
           id="tspan2547">Java, JS e molto </tspan></tspan><tspan
         x="328.15371"
         y="1273.8528"
         id="tspan2553"><tspan
           style="text-align:center;text-anchor:middle;fill:#0000ff"
           id="tspan2551">altro</tspan></tspan></text>
  </g>
</svg>
